<?xml version="1.0" encoding="UTF-8"?>
<svg id="Calque_2" data-name="Calque 2" xmlns="http://www.w3.org/2000/svg" xmlns:xlink="http://www.w3.org/1999/xlink" viewBox="0 0 3015 3021">
  <defs>
    <style>
      .cls-1 {
        clip-path: url(#clippath);
      }

      .cls-2 {
        fill: none;
      }

      .cls-3 {
        fill: #f6e9c9;
      }

      .cls-4 {
        fill-rule: evenodd;
      }
    </style>
    <clipPath id="clippath">
      <path class="cls-2" d="m1500,0h0C2327.87,0,3000,672.13,3000,1500h0c0,827.87-672.13,1500-1500,1500h0C672.13,3000,0,2327.87,0,1500H0C0,672.13,672.13,0,1500,0Z"/>
    </clipPath>
  </defs>
  <g id="Calque_1-2" data-name="Calque 1">
    <rect class="cls-3" x="15" y="21" width="3000" height="3000" rx="1500" ry="1500"/>
    <path class="cls-4" d="m1467.11,1363.77c27.51-31.98,73.84-34.2,112.21-26.21,24.63,5.13,48.61,13.68,73.62,16.85,11.68,1.48,23.49,1.92,35.26,1.71,11.56-.21,23.14-2.54,34.65-2.11,1.77.06,2.44,2.39.9,3.34-15.8,9.71-37.09,12.82-55.75,14.72.06,1.38.14,2.73.33,3.87.51,3.05.97,6.08,1.35,9.15.85,6.92,1.79,13.82,2.74,20.73,1.86,13.6,2.45,27.63,5.73,40.99l.57,2.22c.76,2.81.93,5.34.68,7.62l.76-.34,2.4-1.16,1.57-.74c5.74-2.66,11.21-4.6,17.95-3.95,5.14.49,9.45,3.99,9.48,9.48.13,24.62-33.04,32.53-52,37.25l-5.56,1.37c-24.15,5.89-48.8,11.06-73.63,12.29-39.85,1.98-84.64-9.02-110.71-41.36-24.32-30.17-28.78-75.23-2.55-105.72Zm180.98,103.43c-4.18-37.06-49.71-39.1-62.81-15.6-5.81-32.76-91.79-2.83-85.06,3.68,25.48,24.69,64.15,26.91,97.39,22.34,16.93-2.33,33.87-6.11,50.48-10.43Zm-50.53-97.14l-11.45-1.65-4.51-.62c-28.38-3.8-60.29-5.76-83.62,12.43-8.52,6.64-13.31,15.31-15.1,24.61,22.07-3.27,44.23-5.77,66.45-7.85l6.06-.56c13.9-1.25,27.8-2.58,41.69-3.96l9.87-1,9.87-1.02c3.47-.36,26.88-1.56,31.28-.76.47-3.96,1.08-12.51,2.08-16.36-16.63.56-33.18-.67-49.71-2.87l-2.92-.4Zm52.69-165.66c16.96,10.31,42.81,34.37,24.56,59.94-21.48,22.55-52.4-3.3-67.64-15-14.13-9.06-30.01,14.24-16.9,24.82,110.12,81.56,154.81-67.07,68.56-81.89-9.5-1.63-13.02,8.94-8.58,12.13Zm30.35,43.45l.82-.44.28-.17c.48-.31.17-.28-.91.1l-.81.29v.58c.21-.13.43-.22.63-.36Zm-217.23-91.64v-.51c.03-14.33,8.37-47.05,28.99-47.05,12.88,0,20.7,22.27,22.06,45.22l.05.94c.6,14.27-3.32,45.46-22.1,45.46s-28.8-29.54-28.99-44.07h0Zm303.59-4.49v-.51c-.03-14.33-8.37-47.05-28.99-47.05-12.56,0-20.31,21.17-21.94,43.5l-.11,1.72c-.81,13.79,2.85,46.4,22.06,46.4s28.8-29.54,28.99-44.07h0Zm-291.82-140.76c16.83-2.56,39.11,2.3,46.96,19.42,3.49,7.63-.64,16.06-9.46,16.48-21.3,1.02-40.4-3.72-59.09,10.13-8.04,5.96-14.81,14.22-20.48,22.45l-2.15,3.13-1.78,2.58c-3.85,5.67-7.5,11.83-6.93,18.67.17,2.02-1.9,3.95-3.87,3.87-12.25-.5-13.57-15.87-11.96-25.1,3-17.13,11.28-33.21,22.77-46.16,12.06-13.6,27.99-22.75,45.99-25.48Zm231.79,20.79c11.6-7.46,26.45-10.33,40.04-9.23,26.8,2.16,71.77,24.95,65.85,57.71-1.83,10.1-15.87,15.43-24.15,9.83-8.9-6.02-11.06-15.39-17.68-23.26-5.28-6.29-11.98-10.84-19.15-14.72-7.07-3.82-15.24-6.14-23.26-6.98l-1.34-.13c-4.83-.41-29.2-.3-25.63,8.8.7,1.78-1.95,3.19-3.17,1.84-7.47-8.27.99-19.04,8.47-23.86Z"/>
    <g class="cls-1">
      <g>
        <path class="cls-2" d="m1304.2,2613.41c-5.77-22.83-9.23-47.29-9.64-70.86l2.62-27.52-2.82.73c-102.1,27.15-204.05,55.09-306.47,81.03-50.68,12.85-101.61,24.75-152.35,37.35l-8.22,2.05c-40.03,10.12-80.55,22.3-111.2,51.35-1.13,1.08-2.77-.57-1.71-1.71,33.04-35.19,80.03-50.08,125.15-62.99,8.34-2.39,16.69-4.72,25.03-7.08-61.36-21.88-123.69-40.93-187.46-54.51-16.42-3.5-33.03-6.06-49.44-9.57-11.44-2.45-22.62-5.99-33.94-8.92l-8.91-2.24-.12,28.15c-.15,39.88-.08,79.72,1.96,119.6l.39,7.39c2.37,44.37,6.08,89.67,21.82,131.51,12.79,34.01,33.18,66.03,59.84,90.8,13.49,12.52,28,22.28,45.93,27.1,16.65,4.47,34.09,4.99,51.2,3.8,82.09-5.73,155.16-50.34,226.47-87.28,116.63-60.4,233.28-120.79,350.03-180.96-3.15-2.16-6.13-4.65-8.83-7.44-15.65-16.18-23.91-38.32-29.33-59.76Z"/>
        <path class="cls-2" d="m1714.77,2582.57c5.6,9.4,8.12,20.11,4.9,31.57-8.98,31.86-49.6,15.38-69.17,5.64-16.04-7.98-31.53-17.76-49.28-21.5-20.12-4.23-33.75,3.78-50.76,13-13.95,7.58-29.16,13.02-44.8,15.83-8.31,1.5-16.21,1.66-24.09,1.08-.48.39-1.02.74-1.63,1.07l-4.17,2.18c18.85.86,38.06,6.69,55.61,12.01,18.18,5.52,36.04,12.18,53.8,18.99l17.46,6.71c43.08,16.51,87.69,32.18,134.31,32.05,3.35-.01,6.1.91,8.26,2.43l13.53-108.17c-14.06-.94-33.31-13.81-43.97-12.89Z"/>
        <path class="cls-2" d="m1253.34,1690.99c20.15,24.66,38.16,50.71,53.56,78.6,15.07,27.3,26.56,56.2,40.52,84.04,6.99,13.93,14.8,27.77,24.75,39.83.39.47.79.92,1.19,1.37,3.79-10.27,13.53-21.25,18.31-27.56l.45-.6c10.84-14.62,22.3-28.79,34-42.74,10.68-12.73,21.64-25.18,32.86-37.42l4.22-4.58c7.82-8.45,17.75-21.09,29.2-27.13-1.23-2.18-2.65-4.35-4.28-6.48-10.72-14.02-25.89-24.19-40.84-33.37l-9.71-5.91c-36.56-22.29-72.56-45.61-104.3-74.58-16.79-15.32-33.36-31.38-47.47-49.25l-4.99-6.31-25.24-35.55c-3.93,2.28-7.62,5.11-10.97,8.66-10.52,11.17-18.05,25.07-25.37,38.44-3.94,7.21-7.74,14.48-11.72,21.67-1.73,3.12-3.51,6.21-5.31,9.3-.82,1.42-3.29,4.25-4.52,5.99,1.36,1.91,2.76,3.79,4.2,5.64.55.71,38.3,41.85,51.46,57.95Z"/>
        <path class="cls-2" d="m1967.28,2709.62l-64.78,7.04c-.17,3.7-.62,7.31-.7,10.1-.42,14.38-.73,28.77-1.04,43.17-.6,28.84.06,57.72,1.96,86.5,1.84,27.9,4.26,55.8,8.03,83.5l.76,5.54.45,2.92c3.08.29,6.1,1.76,8.61,4.76,5.48,6.55,25.32.18,33.07-2.58,12.75-4.53,24.74-12.2,35.82-19.88,10.81-7.51,20.55-16.26,29.91-25.48l7.65-7.57c7.61-7.57,15.23-15.63,19.9-25.16,6.33-12.92,7.16-28.77,9.01-42.84,2.29-17.3,5.01-34.6,7.88-51.81l20.04-81.21-27.1,3.08c-29.82,3.4-59.64,6.68-89.47,9.92Z"/>
        <path class="cls-2" d="m1050.81,866.21c7.11,4.3,13.59-6.84,6.5-11.13l-.8-.49c-2.98-1.85-6.46-4.39-6.97-8.03-.53-3.87,2.74-6.89,5.36-9.2,6.23-5.5-2.91-14.59-9.11-9.11-5.78,5.11-10.07,12.05-8.96,20.03,1.14,8.13,7.27,13.88,13.98,17.93Z"/>
        <path class="cls-2" d="m1162.12,884.77c3.21,1.4,6.88.92,8.81-2.31,1.63-2.72.87-7.43-2.31-8.82-6.52-2.85-8.7-7.88-6.5-14.46l.19-.54c2.85-7.8-9.59-11.17-12.42-3.43-4.29,11.73.66,24.48,12.24,29.55Z"/>
        <path class="cls-2" d="m1306.31,1580.17c1.23-9.15,3.72-18.18,5.84-27.11l4.42-20.76c-17.13,1.43-35.61,1.1-51.44,6.68,14.07,13.3,27.44,27.67,41.17,41.19Z"/>
        <path class="cls-2" d="m2323.23,2354.71c-7.32,1.12-12.36-8.08-5.7-12.48l1.49-.92c8.35-5.34,15.49-13.56,15.3-24.26-.12-7.43-10.5-16.81-17.26-9.84l-.31.34c-5.65,6.38-15.61-1.66-11.89-8.72l.17-.32-10.39-38.96c-3.06,13.28-10.57,25.43-21.02,35.06-4,3.68-8.37,6.95-13.02,9.77l-.56.33c-4.13,2.32-14.26,6.66-13.49,11.85.8,5.35,17.32,13.7,21.82,13.71,1.03,0,1.61,1.6.56,2.06-8.16,3.6-15.29,5.14-23.25,1.34-5.34,5.44-10.51,11.07-15.64,16.66-9.07,9.88-5.97,20.31,4.76,27.67,17.22,11.81,43.39,11.53,63.47,10.67,20.22-.86,41.83-5.38,57.63-18.85l.68-.6c8.59-7.63,16.42-20.57,3.28-27.93-5.15-2.88-10.71-2.71-15.6-4.12-4.57,8.97-11.99,16.16-21.04,17.54Z"/>
        <path class="cls-2" d="m1090.15,757.72c-5.55-5.87-6.64-12.28.11-17.4l.44-.33c6.69-4.78.26-15.96-6.5-11.13-6.21,4.43-11.18,10.19-11.71,18.13-.51,7.72,3.42,14.4,8.55,19.83,5.71,6.04,14.81-3.09,9.11-9.11Z"/>
        <path class="cls-2" d="m2066.64,2032.54c-19.62,3.37-39.22,6.89-58.8,10.55l-11.74,2.21c-19.59,3.71-43.5,5.24-60.93,15.7-18.38,11.04-23.35,34.09-29.46,53.1-7.19,22.36-14.19,44.78-21.01,67.25-27.08,89.24-51.8,179.26-73.86,269.86-10.96,44.97-20.67,90.2-30.91,135.34-9.1,40.11-19.14,79.76-29.62,119.46,1.29-1.01,2.88-1.77,4.79-2.17,52.07-11.09,105.21-15.91,158.07-22.02l5.11-.6c54.66-6.42,109.33-12.82,164.03-18.97l362.15-40.75c21.35-2.4,44.24-2.72,65.03-8.46,35.34-9.76,43.62-49.27,49.55-80.75l.18-.96c17.88-95.1,32.11-191.04,48.78-286.37l48.69-271.55c-102.46,3.1-204.8,9.78-306.77,20.26-94.84,9.75-189.32,22.71-283.28,38.88Zm310.69,334.96c-14.55,24.78-46.33,33.79-73.16,35.81l-.96.07c-27.71,1.91-67.63,1.4-86.63-22.38-18.34-22.94,1.92-41.52,22.7-51.6-5.41-4.94-8.21-12.02-5.58-19.49,4.62-13.12,20.95-18.19,30.17-27.32,11.25-11.13,18.68-26.39,15.71-42.34l-.17-.87c-1.95-9.33,9.52-13.65,14.84-6.25l1.13,1.56c11.49,15.74,28.1,35.5,27.26,55.51,10.09.22,20.56,6.36,24.49,15.48,1.82,4.22,2.44,9.21,2.03,14.38,9.18.71,19.19,6.74,24.8,12.61,9.3,9.73,10.03,23.48,3.36,34.84Z"/>
        <path d="m978.98,1889.3c-.78-1.38-3.03-.78-3,.81l12.04,78.85c4.77,27.3,9.76,54.58,14.05,81.96,8.52,54.44,16.62,108.96,25.07,163.41,1.27,8.18,14.29,6.06,14.24-1.93-.39-55.98-6.12-110.6-16.88-165.53-5.31-27.13-11.22-54.06-18.54-80.72-6.99-25.44-13.85-53.76-26.98-76.86Z"/>
        <path d="m2347.14,2305.67c-3.93-9.12-14.4-15.26-24.49-15.48.84-20.01-15.77-39.77-27.26-55.51l-1.13-1.56c-5.32-7.4-16.79-3.08-14.84,6.25l.17.87c2.97,15.96-4.46,31.21-15.71,42.34-9.22,9.13-25.54,14.2-30.17,27.32-2.63,7.47.17,14.55,5.58,19.49-20.77,10.08-41.03,28.66-22.7,51.6,19,23.78,58.92,24.29,86.63,22.38l.96-.07c26.83-2.01,58.6-11.03,73.16-35.81,6.67-11.36,5.94-25.11-3.36-34.84-5.61-5.87-15.62-11.9-24.8-12.61.41-5.17-.21-10.16-2.03-14.38Zm9.45,63.54l-.68.6c-15.79,13.48-37.41,17.99-57.63,18.85-20.08.85-46.25,1.14-63.47-10.67-10.72-7.36-13.82-17.79-4.76-27.67,5.13-5.59,10.31-11.22,15.64-16.66,7.97,3.8,15.09,2.26,23.25-1.34,1.05-.47.47-2.06-.56-2.06-4.5,0-21.02-8.36-21.82-13.71-.77-5.19,9.36-9.53,13.49-11.85l.56-.33c4.65-2.82,9.02-6.09,13.02-9.77,10.45-9.64,17.96-21.78,21.02-35.06l10.39,38.96-.17.32c-3.72,7.06,6.24,15.1,11.89,8.72l.31-.34c6.76-6.97,17.14,2.41,17.26,9.84.19,10.7-6.94,18.92-15.3,24.26l-1.49.92c-6.66,4.4-1.62,13.6,5.7,12.48,9.05-1.38,16.47-8.57,21.04-17.54,4.89,1.4,10.45,1.24,15.6,4.12,13.14,7.36,5.31,20.3-3.28,27.93Z"/>
        <path d="m1445.74,2703.92l-17.43,19.08-3.22,4.42c-5.34,7.39-10.53,14.9-15.66,22.43-12.29,18.04-24.46,36.19-36.64,54.32-24.32,36.2-47.95,72.73-68.22,111.42-4.21,8.02,6.57,17.58,13.12,10.12,29-32.99,53.54-69.29,75.62-107.19,10.99-18.83,21.51-37.94,31.63-57.25,5.07-9.67,9.97-19.49,14.44-29.44l.39-.86c3.68-8.03,8.61-16.83,8.25-25.75-.05-1.16-1.25-1.85-2.28-1.3Z"/>
        <path d="m1650.03,1594.81l-2.66,9.95-.15,3.53c-.51,13.84.29,27.4,2.22,41.16,2,14.31,5.16,28.56,9.14,42.45l.22.78c2.4,8.67,4.68,21.15,11.78,27.43-6.8,12.7-13.25,25.62-19.95,38.27-10.92,20.65-22.21,41.61-39.91,57.27-16.42,14.53-32.83,26.85-44.16,46.12-8.15,13.85-22.31,40.57-8.79,54.87,1.7,1.8,4.85,2.22,6.95.91,6.6-4.13,9.24-10.95,11.52-17.97l1.22-3.78c3.22-9.94,7.19-19.2,12.89-28,12.26-18.92,31.62-30.72,45.7-47.98,12.89-15.82,21.52-34.16,29.62-52.74l1.61-3.72c5.51-12.74,10.65-25.99,14.75-39.51,2.55-.43,4.6-1.85,6.46-4.27,4.98-6.44,3.12-14.15.41-21.46l-.43-1.15c.21-1.29.48-2.56.67-3.85.2-1.4-1.56-2.34-2.4-1.01l-.11.18-.48-1.22c-.31-.8-.6-1.6-.86-2.38-4.16-12.03-7.89-24.24-11.02-36.58-2.95-11.64-5.54-23.37-8.49-35-1.46-5.77-2.86-11.55-4.18-17.35-.17-.76-.89-3.87-1.81-7.21-1.01.25-1.98.6-2.99.84-2.23.51-4.5.94-6.75,1.41Z"/>
        <path d="m1489.31,1922c-21.89-9.09-27.07-32.65-39.55-50.24-1.17-1.64-4.26-1.26-4.13,1.12l22.48,50.77c6.35,6.64,14.11,11.11,22.91,13.66,6.8,1.97,14.81,2.24,20.73,6.43,4.21,2.98,5.84,7.73,8.94,11.7,2.12,2.73,6.49,1.47,8.06-1.04,4.85-7.77-.1-15.86-6.57-20.99-9.66-7.66-21.95-6.87-32.89-11.41Z"/>
        <path d="m2669.63,1951.25c-195.56,5.54-390.68,24.47-583.65,56.7-8.91,1.49-17.81,3.04-26.71,4.58-3.25-10-10.41-19.99-14.25-28.75-4.83-11.03-9.05-22.33-13.12-33.66l-2.71-7.55c-10.11-28.37-19.29-58.09-33.63-84.64-14.55-26.93-33.93-49.59-58.51-67.83-22.05-16.36-47.92-27.36-73.4-37.46l-6.35-2.51c-32.24-12.68-65.7-23.28-96.69-38.86-1.91-.96-4.32,1.65-2.44,3.16,45.9,37.14,102.94,54.86,150.26,89.6,23.2,17.04,41.82,37.64,55.86,62.82,13.33,23.93,23.12,49.09,32.61,74.68l3.93,10.62c5.24,14.14,10.68,28.19,16.74,42l.5,1.15c2.82,6.6,5.95,15.18,10.13,22.76-4.96.9-9.93,1.78-14.88,2.69-22.22,4.11-45.1,7.29-66.88,13.38-19.19,5.36-35.34,15.48-45.42,33.06-10.66,18.58-15.98,40.62-22.59,60.86l-2.88,8.84c-28.67,88.45-54.09,177.83-76.06,268.2-12.75,52.38-24.29,105.06-34.82,157.93-1.07,5.38-2.07,10.75-3.06,16.13-7.39,1.46-13.54,0-21.13-2.09l-4.6-1.28c-8.47-2.25-16.6-2.45-23.13,3.62-7.52-10.92-19.05-19.83-29.95-25.69-15.01-8.07-31.64-13.14-48.11-17.19l-8.55-2.11c-16.35-3.97-35.06-7.87-50.74-4.3-5.83,1.33-5.05,9.37,0,11.07,10.18,3.43,21.11,3.21,31.68,4.7,9.32,1.31,18.59,3.11,27.74,5.32,16.04,3.86,32.55,8.49,46.73,17.15,11.9,7.26,30.33,24.49,24.5,40.62-6.03,16.67-32.16,4.96-44.71-1.14l-6.45-3.17c-28.01-13.97-59.95-32.32-91.23-17.37-16.16,7.72-29.63,18.89-46.86,24.75-10.27,3.49-21.53,6.41-32.82,8.26-1.33-4.91-6.82-9.04-12.75-5.99-32.03,16.45-64.04,32.93-96.05,49.42-5.12-.46-10.2-2.49-14.2-5.41-16.35-11.97-24.21-35.22-29.55-54.18l-.98-3.52c-6.5-23.58-13.17-51.71-9.72-76.1.94-6.63,3.18-12.33,6.29-17.36,18.11-4.77,36.24-9.5,54.39-14.21,28.72-7.44,59.06-13.06,86.72-23.92,6-2.35,6.43-8.53,3.27-12,35.33-9.77,70.17-21.67,105.17-32.31,12.74-3.87,25.5-7.67,38.27-11.45l25.53-7.56c17.82-5.28,50.03-20.71,61.78,1.56,2.27,4.3,7.16,4.65,10.71,2.7,6.12,7.52,12.87,14.6,19.56,21.44,8.67,8.84,19.06,23.66,31.84,25.03,4.17.45,6.32-4.14,5.72-7.52-1.17-6.56-4.93-9.32-9.68-13.44l-1.07-.95c-5.8-5.17-11.52-10.48-17.47-15.48-8.24-6.91-16.78-13.94-25.85-19.93-7.18-18.26-28.09-22.2-45.92-18.94-24.35,4.45-48.72,13.45-72.28,21.49l-5.43,1.84c-46.02,15.43-93.02,31.04-136.7,52.61-23.72,4.38-47.18,12.24-70.35,18.52l-31.01,8.4c3.2-1.89,6.45-3.72,9.71-5.49,1.49-.82,1.38-2.99,0-3.83-16.95-10.41-35.45-4.37-49.4,9.14-4.24,4.11-7.63,8.69-10.36,13.61-51.63,13.65-103.29,27.23-154.9,41-71.4,19.07-142.67,38.47-213.82,58.32,2.77-7.71,3.62-17,5.01-23.59l.73-3.61c2.6-13.28,4.21-26.82,6.18-40.2l.77-5.26c4.03-28.09,7.16-56.1,8.75-84.48,1.62-28.87,3.66-57.87,4.07-86.79.21-14.8.06-29.75-1.12-44.51-1.04-13.04-1.8-27.56-8.57-39.03-.71-1.2-2.2-1-2.96,0-7.08,9.36-9.96,21.51-12.33,33.04l-.96,4.74c-.15.74-.28,1.48-.43,2.23-8.42-15.75-18.9-30.83-32.1-42.7-1.47-1.33-4.62-.06-3.7,2.15,7.79,18.77,16.68,37.03,22.98,56.41,2.36,7.28,4.62,14.58,6.55,21.98l-.48,3.31c-4.03,28.93-6.77,58.07-10.47,87.04l-.83,6.66c-3.26,26.63-5.72,53.22-7.6,80.01-.99,14.05-2.52,28.14-3.02,42.22l-.03.72c-.49,10.56-3.46,27.6,2.76,37.14-5.68,1.6-11.35,3.21-17.02,4.82,2.14-7.97-.7-17.81-10.54-21.57-79.67-30.5-162.92-48.11-247.3-59.16-18.52-2.43-43.25-10.82-64.94-10.06,10.69-37.56,18.35-75.9,27.59-113.86,10.48-43.09,21.63-86.05,33.39-128.8,22.97-83.57,47.6-167.18,77.38-248.6,25.87-70.73,60.61-139.03,119.35-188.04,49.98-41.7,111.59-67.5,171.72-90.98l10.31-4c34.9-13.47,70.26-26.15,104.3-41.68,30.98-14.14,64.71-29.72,90.34-52.97,10.88,16.9,24.21,32.29,36.1,48.66,19.67,27.08,37.3,55.95,52.8,85.61,14.95,28.62,26.04,59.02,40.94,87.64,7.32,14.05,35.38,69.67,55.1,43.01,1.64-2.21,1.71-5.33.8-8.03,3.72-5.05,8.48-10,11.89-14.95,4.53-6.6,9.09-13.17,13.69-19.72,10.29-14.64,21.09-28.89,32.17-42.93,10.8-13.7,21.63-27.36,32.36-41.11,5.39-6.9,12.2-14.64,17.19-22.79,4.09,12.55,2.86,25.88-.92,39.78-5.43,19.94-13.86,40.01-10.71,61.08,2.94,19.69,16.25,32.31,30.74,44.21l5.57,4.52c18.58,15.29,34.3,33.36,45.91,54.52,6.01,10.95,10.6,22.5,13.37,34.68,2.65,11.72,2.49,23.81,5.65,35.36,1.4,5.09,9.46,6.8,11.96,1.57,8.71-18.26,3.99-41.05-2.45-59.65l-.67-1.91c-7.52-21.02-19.44-39.87-34.1-56.63-6.72-7.69-14.05-14.85-21.85-21.43-8.79-7.41-18.97-13.96-25.96-23.23-13.75-18.19-3.83-41.47,1.89-60.78l.64-2.21c5.61-19.49,8.91-39.64,1.31-59.14-7.16-18.31-21.19-32.35-36.61-44.02-16.58-12.54-34.96-22.29-52.55-33.29-20.06-12.54-39.47-26.18-57.92-40.99-16.91-13.57-33.4-27.86-49.29-42.69,8.93-7.7,15.51-17.75,21.28-28.02,7.09-12.63,14.98-27.86,17.03-42.27,3.44-24.07-27.36-32.97-36.48-10.06l-4.05,12.87c-21.25-1.97-43.67-3.47-63.17,3.67-1.31-1.14-5.91,1.14-5.4,2.25-6.15,2.88-11.95,6.73-17.26,11.88-11.45,11.11-20.48,24.66-29.07,38.1l-3.2,5.03c-5.12,8.06-10.06,16.27-15.61,24.04l-.59.84c-4.53,6.66-6.83,13.77-.04,20.18,2.4,2.28,6.71,3.27,9.62,1.24.09-.06.19-.13.28-.2l.53-.46c.88,1.76,1.79,3.49,2.73,5.19-29.02,11.74-56.95,26.4-86.11,37.96-32.97,13.08-66.24,25.29-99.58,37.36l-2.88,1.04c-64.35,23.31-129.85,47.77-185.67,88.25-29.94,21.71-55.99,47.14-78.05,76.85-23.67,31.87-41.13,67.75-56.29,104.3-30.36,73.21-53.36,150.06-75.36,226.28l-6.27,21.76c-13.98,48.62-27.16,97.48-39.02,146.66-12.08,50.11-25.06,100.13-30.49,151.49-8.22,8.9-10.29,21.82-3.4,32.73,8.61,13.61,23.73,16.11,38.37,16.89l2.39.11c3.79.16,4.15-5.18.86-6.33-9.47-3.29-39.12-16.48-27.43-29.37,5.37.64,11.32-1.42,14.39-6.33,6.19-.43,12.99.81,19.11,2.26-5.59,45.68-7.29,91.89-7.55,137.88-.25,43.19.44,86.74,10.86,128.9,9.16,37.06,26.23,71.61,50.26,101.27,22.77,28.11,51,51.09,87.47,57.08,37.45,6.15,75.36.83,112.16-10.12-1.06,3.96-1.78,8.05-2.37,12.03-1.66,11.18-6.36,27.4-1.12,37.7,2.88,5.67,10.46,5.65,14.7,1.89,8.15-7.24,6.1-19.97,5.14-30.15l-.16-1.87c-.68-8.61-1.04-16.51-.47-24.64,32.1-10.98,63.16-25.68,92.09-40.2l6.16-3.1c83.74-42.33,166.63-86.38,249.86-129.73l41.76-21.78c41.76-21.8,83.49-43.65,125.22-65.52,6.98.72,14.16-.17,21.08-3.04,7.21-2.99,14.27-6.96,17.86-14.27.55-1.13,1.07-2.47,1.46-3.89l55.02-28.87c20.94,10.14,43.88,16.57,65.32,25.57,22.99,9.65,45.58,20.19,68.53,29.91,45.52,19.3,92.14,35.67,142.2,35.87,5.67.02,9.64-2.63,11.91-6.34,2.13,2.82,5.4,4.76,9.65,4.69,35.84-.56,71.45-4.15,107.04-8.12l23.21-2.62c-.4,2.22-.76,4.43-1.1,6.66-.92,6.1-1.71,12.22-2.49,18.33-1.83,14.35-2.79,28.77-3.58,43.22-1.51,28.11-1.85,56.3-.99,84.44.84,27.4,3.59,54.83,7.12,82.01,1.83,14.05,3.88,28.07,6.27,42.04,2.29,13.43,3.05,27.03,12.73,37.31,4.89,5.19,12.87,2.15,14.98-3.95,4.54-13.14-.59-27.42-3.23-40.71,20.27,3.28,48.08-5.69,62.92-11.48l2.2-.86c16.9-6.83,31.76-17.48,46.13-28.52,13.85-10.62,28.09-21.72,39.82-34.72,12.77-14.16,21.42-30.21,24.18-49.15,2.19-15.11,3.15-30.4,3.96-45.67l.99-18.99c1.74-34.76,1.45-68.59-2.33-102.96l258.64-29.43c48.57-5.53,98-8.92,146.18-17.22,18.99-3.26,37.84-10.18,51.35-24.48,12.54-13.25,20.16-30.01,25.14-47.39,5.54-19.38,7.89-39.38,11.12-59.23,3.99-24.57,8.88-49.01,13.1-73.54,8.34-48.43,16.49-96.88,24.47-145.37,18.29-111.1,34.97-222.49,53.75-333.51,1.13-6.68-2.84-13.98-10.48-13.76Zm-1353.05-418.95l-4.42,20.76c-2.12,8.92-4.61,17.96-5.84,27.11-13.73-13.53-27.11-27.89-41.17-41.19,15.82-5.58,34.31-5.24,51.44-6.68Zm-114.37,89.11c1.8-3.09,3.58-6.18,5.31-9.3,3.97-7.19,7.78-14.46,11.72-21.67,7.32-13.37,14.85-27.27,25.37-38.44,3.34-3.55,7.03-6.38,10.97-8.66l25.24,35.55,4.99,6.31c14.12,17.88,30.68,33.94,47.47,49.25,31.74,28.97,67.74,52.29,104.3,74.58l9.71,5.91c14.95,9.18,30.12,19.35,40.84,33.37,1.63,2.13,3.05,4.3,4.28,6.48-11.45,6.04-21.38,18.68-29.2,27.13l-4.22,4.58c-11.22,12.25-22.18,24.7-32.86,37.42-11.7,13.94-23.15,28.12-34,42.74l-.45.6c-4.78,6.31-14.51,17.3-18.31,27.56-.4-.46-.8-.9-1.19-1.37-9.95-12.06-17.76-25.9-24.75-39.83-13.96-27.84-25.45-56.74-40.52-84.04-15.4-27.89-33.41-53.94-53.56-78.6-13.16-16.1-50.91-57.24-51.46-57.95-1.43-1.85-2.84-3.73-4.2-5.64,1.23-1.74,3.7-4.56,4.52-5.99Zm-209.87,1240.16c-71.31,36.93-144.38,81.54-226.47,87.28-17.11,1.19-34.56.67-51.2-3.8-17.93-4.82-32.43-14.57-45.93-27.1-26.66-24.77-47.05-56.79-59.84-90.8-15.74-41.83-19.44-87.13-21.82-131.51l-.39-7.39c-2.03-39.87-2.1-79.71-1.96-119.6l.12-28.15,8.91,2.24c11.32,2.94,22.5,6.47,33.94,8.92,16.41,3.52,33.02,6.08,49.44,9.57,63.77,13.58,126.1,32.63,187.46,54.51-8.34,2.37-16.69,4.7-25.03,7.08-45.12,12.92-92.11,27.81-125.15,62.99-1.07,1.14.58,2.78,1.71,1.71,30.66-29.05,71.17-41.22,111.2-51.35l8.22-2.05c50.75-12.6,101.67-24.5,152.35-37.35,102.42-25.94,204.37-53.88,306.47-81.03l2.82-.73-2.62,27.52c.41,23.57,3.86,48.03,9.64,70.86,5.42,21.45,13.68,43.58,29.33,59.76,2.7,2.79,5.68,5.27,8.83,7.44-116.75,60.18-233.4,120.56-350.03,180.96Zm752.87-157.94c-2.16-1.51-4.91-2.44-8.26-2.43-46.62.13-91.23-15.54-134.31-32.05l-17.46-6.71c-17.76-6.81-35.61-13.47-53.8-18.99-17.54-5.33-36.75-11.15-55.61-12.01l4.17-2.18c.61-.33,1.15-.68,1.63-1.07,7.88.58,15.77.43,24.09-1.08,15.64-2.82,30.85-8.25,44.8-15.83,17-9.22,30.63-17.23,50.76-13,17.76,3.74,33.25,13.52,49.28,21.5,19.57,9.74,60.19,26.22,69.17-5.64,3.22-11.45.7-22.17-4.9-31.57,10.66-.92,29.91,11.95,43.97,12.89l-13.53,108.17Zm318.59,74.2c-2.87,17.22-5.59,34.52-7.88,51.81-1.85,14.07-2.67,29.92-9.01,42.84-4.66,9.52-12.29,17.58-19.9,25.16l-7.65,7.57c-9.36,9.22-19.1,17.97-29.91,25.48-11.08,7.68-23.07,15.35-35.82,19.88-7.75,2.76-27.59,9.13-33.07,2.58-2.51-3-5.53-4.46-8.61-4.76l-.45-2.92-.76-5.54c-3.77-27.71-6.19-55.61-8.03-83.5-1.9-28.78-2.56-57.66-1.96-86.5.31-14.39.62-28.78,1.04-43.17.08-2.8.53-6.4.7-10.1l64.78-7.04c29.83-3.24,59.65-6.52,89.47-9.92l27.1-3.08-20.04,81.21Zm544.19-532.87c-16.67,95.34-30.9,191.27-48.78,286.37l-.18.96c-5.93,31.48-14.21,70.99-49.55,80.75-20.78,5.73-43.67,6.06-65.03,8.46l-362.15,40.75c-54.7,6.15-109.37,12.54-164.03,18.97l-5.11.6c-52.85,6.12-106,10.94-158.07,22.02-1.91.41-3.5,1.17-4.79,2.17,10.48-39.7,20.52-79.36,29.62-119.46,10.24-45.14,19.95-90.37,30.91-135.34,22.06-90.6,46.78-180.62,73.86-269.86,6.82-22.47,13.82-44.89,21.01-67.25,6.12-19.01,11.09-42.06,29.46-53.1,17.43-10.46,41.35-11.99,60.93-15.7l11.74-2.21c19.58-3.66,39.18-7.18,58.8-10.55,93.96-16.17,188.45-29.13,283.28-38.88,101.97-10.48,204.31-17.16,306.77-20.26l-48.69,271.55Z"/>
        <path d="m1733.25,1764.75c5.42,1.65,11.75-.33,13.26-7.32,2.94-13.68,3.09-28.14,3.98-42.07l.06-1.09c.73-11.62,1.18-23.93-4.18-34.61-4.93-9.84-14.37-16.04-23.75-21.09l-1.25-.68c-11.76-6.41-24.56-14.34-37.65-17.05-2.16-.45-4.76,1.99-3.19,4.15l17.81,17.01,6.17,4.79c7.55,5.76,17.75,11.77,22.19,20.28,4.71,8.99,2.28,20.74,1.25,30.35l-.29,2.65c-1.02,8.84-2.34,17.88-2.67,26.82-1.66.24-3.19,1.02-4.3,2.45-8.64,11.12-13.62,24.25-23.16,34.93-8.57,9.59-18.58,17.87-25.27,29.03-9.48,15.83-11.8,34.39-11.45,52.76-3.32-2.59-6.65-5.16-10.02-7.69l-.45-.34c-7.08-5.43-16.8-15.18-26.53-12.99-7.98,1.79-14.04,12.54-18.55,18.63l-1.37,1.88c-6.79,9.42-12.5,19.49-17.42,30.03-.72,1.55,1.25,2.65,2.26,1.32,5.49-7.3,11.38-14.18,17.9-20.57l.44-.45c3.47-3.52,13.59-14.75,17.85-14.08,1.76.28,7.78,7,9.14,8.22l3.07,2.71c2.06,1.8,4.14,3.58,6.23,5.35,2.45,2.05,4.9,4.1,7.35,6.15l14.75,12.25c6.39,5.33,18.81,2.49,18.1-7.5-1.77-24.67-4.94-52.32,11.93-72.81,13.22-16.07,31.33-31.07,37.78-51.43Z"/>
        <path d="m1105.9,1930.35l7.28,200.48c-1.95,10.31,13.33,14.83,15.92,4.39,16.91-68.24,7.99-141.54-18.35-206.21-1.18-2.92-5.82-1.85-4.85,1.34Z"/>
        <path d="m1717.88,2504.79c-11.1-9.05-23.92-10.87-37.81-9.17l-86.16,17.39-22.16,5.52c-.86.2-.7,1.66.21,1.58,19.79-1.72,39.51-3.7,59.23-6.04,17.41-2.06,34.96-6.11,52.5-6.75,16.36-.6,25.26,7.12,34.9,17.12l6.57,6.86c9.76,10.06,21.35,17.82,35.67,13.57,5.58-1.65,4.28-9.53-1.33-9.89-19.25-1.18-28.24-19.27-41.63-30.19Z"/>
        <path d="m1773.12,2486.99c-10.15-15.99-27.84-27.63-44.08-37.49l-3.46-2.09c-18.01-10.85-36.46-10.77-56.63-8.82l-2.29.23-62.14,9.66c-21.1,4.43-43.57,9.02-62.96,18.7-2.23,1.12-.99,4.39,1.2,4.4v.04c19.11-1.61,38.09-6.64,57.02-9.82,20.14-3.4,40.47-5.87,60.81-7.68,21.01-1.87,40.04-3.86,58.46,8.17,16.41,10.72,30.68,25.05,50.21,29.74,2.77.67,5.52-2.41,3.86-5.03Z"/>
        <path d="m1188.29,1233.66c11.03,5.51,21.83,13.71,29.13,23.83,1.9-4.52,2.12-9.8-.4-14.53-5.01-9.34-14.67-16.47-23.07-23.06l-3.36-2.66c-6.9-5.44-14.25-10.7-23.06-12.24-13.12-2.3-26.46,6.38-26.33,20.45.02,2.04,3.03,2.48,3.56.48l.13-.41c1.47-3.96,7.62-5.3,10.95-4.34,1.72.49,3.16,1.52,4.49,2.66l.88.77c.52.46.86,1.06,1.34,1.55,8.63-.69,18.3,3.77,25.75,7.5Z"/>
        <path d="m975.99,879.88l1.21.93c.04.2.09.39.11.58-5.2,6.21-9.04,13.58-10.95,21.68-4.7,19.91,3.05,33.08,15.93,42.51-8.8,10.91-13.21,25.09-9.47,39.31,3.74,14.13,14.22,24.72,26.88,31.17.17.62.37,1.27.56,1.89-2.32,4.94-3.82,10.42-4.21,16.49-1.2,18.35,9.36,34.89,24.5,44.49.54,1.1,1.09,2.17,1.67,3.22-4.12,8.36-4.81,17.64.6,27.71,3.91,7.3,10.46,12.41,17.84,15.83,2.36,5.05,6.03,9.15,10.48,12.14-.92,6.04-.67,12.29,1.09,18.47,3.44,11.97,10.67,21.12,19.84,27.15-.47,1.06-.97,2.08-1.4,3.18-5.65,14.52,9.99,28.91,23.9,26.59-2.6,6.14-4.7,12.52-6.21,19.08-8.87,38.86,1.7,89.15,39.08,109.92,9.19,5.09,18.96,7.24,29.29,8.57,11.1,1.42,23.66,1.48,32.55,9.24,14.56,12.72,19.8,35.81,29.01,52.22,12.09,21.55,27.81,41.4,45.97,58.11,9.56,8.81,19.88,16.88,30.69,24.06,10.01,6.66,21.97,16.2,33.99,8.57,2.79-1.78,4.96-4.92,4.79-8.36-.54-9.86-6.23-14.3-14.17-18.97l-2.15-1.27c-7.85-4.71-15.44-9.88-22.57-15.63-14.69-11.88-28.15-25.72-39.14-41.12-9.5-13.3-16.65-27.52-23.61-42.14l-3.12-6.6c-7.49-15.85-17.5-31.17-33.95-38.75-17.56-8.1-39.34-3.41-55.59-14.33-13.72-9.22-21-26.38-23.51-42.17-4.59-28.59,5.93-57.83,27.98-75.81,6.36-2.26,12.67-4.64,18.92-7.26,4.92-2.08,9.83-4.21,14.64-6.51,6.51-.58,13.08-.22,19.33,1.03,12.41,2.51,27.31,6.75,37.79,15.38-4.75-2.1-9.38-4.51-13.94-6.55-3.46-1.55-5.99,2.79-2.94,5.03,7.28,5.39,15.76,10.49,21.9,17.16,2.58,2.79,7.11,2.47,9.73,0,14.88-14.09,1.63-34.82-.13-51.28-.82-7.52,1.87-11.7,8.2-15.77,9.79-6.29,20.23-10.83,28.71-19.12,16.21-15.83,21.82-38.24,23.6-60.13,2.1-26.16-.32-52.63.75-78.88,1.1-26.85,2.08-55.51,8.57-81.69,2.58-10.35,6.72-18.77,16.94-23.15,11.92-5.09,25.96-6.38,38.61-8.64l6.12-1.08c57.13-9.92,114.69-16.73,172.53-20.75,67.82-4.69,135.86-5.52,203.77-2.68,9.27,4.29,17.94,9.93,25.69,16.75,19.78,58.2,35.01,117.71,44.92,178.46,11.21,68.69,18.14,138.51,23.41,207.89l.18,2.45c2.66,36.01,3.75,72.76-3.49,108.32-5.82,28.53-16.75,55.53-31.84,80.41-30.64,50.48-78.31,91.01-134.33,110.37-33.86,11.69-69.66,16.15-105.37,13.64-36.63-2.55-70.22-13.98-103.26-29.36-17.46-8.12-32.49,16.15-15.33,26.25,56.19,33.14,129.08,39.73,192.45,26.64,2.25-.47,4.52-.89,6.75-1.41,1.01-.23,1.98-.59,2.99-.84,61.61-15.02,116.13-51.45,154.81-101.58,41.57-53.9,60.94-119.05,60.9-186.78-.02-29.94-2.6-59.88-5.5-89.73l-3.3-33.57c-3.36-33.71-7.51-67.3-12.89-100.77-10.78-67.09-26.48-135.55-56.43-197.07,5.39,1.68,11.72-2.15,13.68-7.58l.46-1.21c4.56-11.47,13.16-17.88,20.09-27.7,3.39-4.8,5.1-9.88,5.41-15.07.18-.59.36-1.17.5-1.77.2-.46.39-.93.58-1.4l1.13-2.83c13.23-7.81,19.85-22.89,16.13-37.5,3.38-3.22,6.37-6.78,8.82-10.72,10.03-11.43,13.01-28.3,6.79-42.43,5.5-4.58,10.4-9.81,14.26-16.02,8.98-14.44,10.61-34.37,2.32-49.49-6.06-11.02-16.71-17.79-28.43-19.57-.45-2.4-.94-4.81-1.52-7.17,4.14-14.78,1.35-29.86-11.17-40.28-3.95-3.28-8.44-5.78-13.21-7.54-.47-.52-.92-1.03-1.4-1.53-8.85-9.34-19.43-15.9-30.9-20.49-6.53-15.34-20.57-27.8-37.51-29.02-13.09-.93-24.44,5.46-33.72,14.35-5.86-6.16-13.22-10.9-21.61-13.44-5.77-1.74-12.16-2.18-18.22-1.08-9.2.04-17.46,4.03-23.52,10.99-10.4-8.1-22.94-13.34-35.99-12.41-9.34.66-16.83,5.43-21.47,12.12-4.65-4.72-10.07-8.3-17.68-8.73-8.53-.48-15.2,2.67-20.49,7.67-10.98-7.36-24.29-10.15-39.32-4.66-2.1.77-4.04,1.67-5.84,2.69-7.43-.27-15.38-.27-22.96.7-3.35-2.13-6.91-3.73-10.57-4.81-5.63-5.4-14.91-7.74-20.93-.91-9.39,1.84-18.17,6.64-24.67,13.94-2.52-3.28-5.24-6.45-8.15-9.49-4.32-4.47-12.18-5.61-17.5-2.26-6.96,4.38-13.06,9.67-18.23,15.66-4.45.07-8.89.15-13.31.26-5.43-6.85-12.56-11.75-22.57-11.34-10.91.43-18.87,5.75-24.72,13.64l-4.96.34c-1.1-1.83-2.19-3.65-3.37-5.46-5.41-8.29-14.97-8.76-22.31-2.88-4.49,3.59-8.55,7.58-12.2,11.86-3.46.38-6.89.77-10.33,1.2-6.18-6.27-14.19-10.68-23.06-11.02-14.24-.54-22.72,7.2-27.68,18.3-.07.02-.11.02-.15.02-9.49-7.58-21.88-11.75-33.95-8.77-10.63,2.64-17.54,8.46-21.88,15.98l-2.77.58c-8.7-3.16-18.51-3.54-28.15.22-8.35,3.24-15.5,8.64-20.94,15.38-1.61.51-3.22,1.03-4.81,1.59-2.41.84-4.7,1.76-6.91,2.79-3.91-.58-8.16-.62-12.73.02-11.75,1.61-21.3,9.08-26.2,19.4-5.75-.62-11.72.13-17.39,2.69-13.81,6.25-23.13,20.02-26.02,34.67-.94,4.75-1.18,9.43-.84,14.05-5.67.19-10.31,2.02-14.45,7.02-5.02,6.04-9.36,14.18-11.68,21.67-.36,1.23-.69,2.45-.94,3.7-6.87,5.86-11.57,14.13-13.18,23.61-.97,5.61-1.05,10.78-.45,15.64-8.98,5.73-16,14.37-18.96,25.22-3.63,13.17-1.85,25.69,3.41,36.97l-.37,1.16c-7.34,4.06-13.59,10.23-17.97,19.08-9.76,19.68-.62,35.68,15.29,48.23Zm173.89-24.66c2.83-7.74,15.27-4.38,12.42,3.43l-.19.54c-2.2,6.58-.01,11.61,6.5,14.46,3.18,1.39,3.94,6.1,2.31,8.82-1.94,3.23-5.6,3.72-8.81,2.31-11.58-5.07-16.52-17.82-12.24-29.55Zm-65.68-126.34c6.77-4.83,13.19,6.35,6.5,11.13l-.44.33c-6.75,5.11-5.66,11.52-.11,17.4,5.7,6.02-3.4,15.15-9.11,9.11-5.13-5.43-9.06-12.12-8.55-19.83.52-7.94,5.5-13.7,11.71-18.13Zm-38.41,99.38c6.2-5.48,15.34,3.61,9.11,9.11-2.62,2.31-5.89,5.33-5.36,9.2.5,3.64,3.99,6.18,6.97,8.03l.8.49c7.09,4.29.61,15.43-6.5,11.13-6.71-4.06-12.84-9.8-13.98-17.93-1.11-7.98,3.18-14.92,8.96-20.03Z"/>
        <path d="m1154.86,1229.15c4.06,8.89,14.3,13.4,21.36,20.15,7.73,7.35,12.82,15.81,19.2,24.21,10.37,13.64,33.54,1.35,23.68-13.86-.49-.76-1.15-1.42-1.69-2.16-7.3-10.12-18.1-18.33-29.13-23.83-7.45-3.73-17.12-8.19-25.75-7.5-2.61.21-5.14.84-7.47,2.17-.32.17-.36.52-.21.82Z"/>
      </g>
    </g>
  </g>
</svg>